  0
SECTION
  2
BLOCKS
  0
ENDSEC
  0
SECTION
  2
ENTITIES
  0
LINE
  8
0
 10
136
 20
136
 11
64
 21
136
  0
LINE
  8
0
 10
64
 20
136
 11
64
 21
64
  0
LINE
  8
0
 10
64
 20
64
 11
136
 21
64
  0
LINE
  8
0
 10
136
 20
64
 11
136
 21
136
  0
LINE
  8
0
 10
66.95
 20
134.6
 11
66.95
 21
135.4
  0
LINE
  8
0
 10
66.95
 20
135.4
 11
133.05
 21
135.4
  0
LINE
  8
0
 10
133.05
 20
135.4
 11
133.05
 21
134.6
  0
LINE
  8
0
 10
133.05
 20
134.6
 11
66.95
 21
134.6
  0
LINE
  8
0
 10
64.6
 20
66.95
 11
64.6
 21
133.05
  0
LINE
  8
0
 10
64.6
 20
133.05
 11
65.4
 21
133.05
  0
LINE
  8
0
 10
65.4
 20
133.05
 11
65.4
 21
66.95
  0
LINE
  8
0
 10
65.4
 20
66.95
 11
64.6
 21
66.95
  0
LINE
  8
0
 10
134.6
 20
66.95
 11
134.6
 21
133.05
  0
LINE
  8
0
 10
134.6
 20
133.05
 11
135.4
 21
133.05
  0
LINE
  8
0
 10
135.4
 20
133.05
 11
135.4
 21
66.95
  0
LINE
  8
0
 10
135.4
 20
66.95
 11
134.6
 21
66.95
  0
LINE
  8
0
 10
81.5119
 20
117.39
 11
81.4723
 21
117.398
  0
LINE
  8
0
 10
81.4723
 20
117.398
 11
81.2904
 21
117.439
  0
LINE
  8
0
 10
81.2904
 20
117.439
 11
81.0856
 21
117.537
  0
LINE
  8
0
 10
81.0856
 20
117.537
 11
80.9081
 21
117.678
  0
LINE
  8
0
 10
80.9081
 20
117.678
 11
80.767
 21
117.855
  0
LINE
  8
0
 10
80.767
 20
117.855
 11
80.6695
 21
118.06
  0
LINE
  8
0
 10
80.6695
 20
118.06
 11
80.628
 21
118.242
  0
LINE
  8
0
 10
80.628
 20
118.242
 11
80.6208
 21
118.281
  0
LINE
  8
0
 10
80.6208
 20
118.281
 11
80.6208
 21
118.468
  0
LINE
  8
0
 10
80.6208
 20
118.468
 11
80.6232
 21
118.508
  0
LINE
  8
0
 10
80.6232
 20
118.508
 11
80.6647
 21
118.69
  0
LINE
  8
0
 10
80.6647
 20
118.69
 11
80.6767
 21
118.728
  0
LINE
  8
0
 10
80.6767
 20
118.728
 11
80.7576
 21
118.897
  0
LINE
  8
0
 10
80.7576
 20
118.897
 11
80.7784
 21
118.931
  0
LINE
  8
0
 10
80.7784
 20
118.931
 11
80.8948
 21
119.077
  0
LINE
  8
0
 10
80.8948
 20
119.077
 11
80.9232
 21
119.105
  0
LINE
  8
0
 10
80.9232
 20
119.105
 11
81.0813
 21
119.229
  0
LINE
  8
0
 10
81.0813
 20
119.229
 11
81.1157
 21
119.25
  0
LINE
  8
0
 10
81.1157
 20
119.25
 11
81.2989
 21
119.332
  0
LINE
  8
0
 10
81.2989
 20
119.332
 11
81.3372
 21
119.344
  0
LINE
  8
0
 10
81.3372
 20
119.344
 11
81.5349
 21
119.381
  0
LINE
  8
0
 10
81.5349
 20
119.381
 11
81.575
 21
119.383
  0
LINE
  8
0
 10
81.575
 20
119.383
 11
81.7755
 21
119.371
  0
LINE
  8
0
 10
81.7755
 20
119.371
 11
81.815
 21
119.364
  0
LINE
  8
0
 10
81.815
 20
119.364
 11
82.0068
 21
119.304
  0
LINE
  8
0
 10
82.0068
 20
119.304
 11
82.0435
 21
119.287
  0
LINE
  8
0
 10
82.0435
 20
119.287
 11
82.2154
 21
119.183
  0
LINE
  8
0
 10
82.2154
 20
119.183
 11
82.247
 21
119.159
  0
LINE
  8
0
 10
82.247
 20
119.159
 11
82.3891
 21
119.017
  0
LINE
  8
0
 10
82.3891
 20
119.017
 11
82.4138
 21
118.985
  0
LINE
  8
0
 10
82.4138
 20
118.985
 11
82.5178
 21
118.813
  0
LINE
  8
0
 10
82.5178
 20
118.813
 11
82.5343
 21
118.776
  0
LINE
  8
0
 10
82.5343
 20
118.776
 11
82.594
 21
118.585
  0
LINE
  8
0
 10
82.594
 20
118.585
 11
82.6013
 21
118.545
  0
LINE
  8
0
 10
82.6013
 20
118.545
 11
82.6134
 21
118.345
  0
LINE
  8
0
 10
82.6134
 20
118.345
 11
82.611
 21
118.304
  0
LINE
  8
0
 10
82.611
 20
118.304
 11
82.5748
 21
118.107
  0
LINE
  8
0
 10
82.5748
 20
118.107
 11
82.5628
 21
118.068
  0
LINE
  8
0
 10
82.5628
 20
118.068
 11
82.4803
 21
117.885
  0
LINE
  8
0
 10
82.4803
 20
117.885
 11
82.4596
 21
117.851
  0
LINE
  8
0
 10
82.4596
 20
117.851
 11
82.3357
 21
117.693
  0
LINE
  8
0
 10
82.3357
 20
117.693
 11
82.3073
 21
117.664
  0
LINE
  8
0
 10
82.3073
 20
117.664
 11
82.1614
 21
117.548
  0
LINE
  8
0
 10
82.1614
 20
117.548
 11
82.127
 21
117.527
  0
LINE
  8
0
 10
82.127
 20
117.527
 11
81.9588
 21
117.446
  0
LINE
  8
0
 10
81.9588
 20
117.446
 11
81.9205
 21
117.434
  0
LINE
  8
0
 10
81.9205
 20
117.434
 11
81.7386
 21
117.393
  0
LINE
  8
0
 10
81.7386
 20
117.393
 11
81.6985
 21
117.39
  0
LINE
  8
0
 10
81.6985
 20
117.39
 11
81.5119
 21
117.39
  0
LINE
  8
0
 10
118.304
 20
117.389
 11
118.107
 21
117.425
  0
LINE
  8
0
 10
118.107
 20
117.425
 11
118.068
 21
117.437
  0
LINE
  8
0
 10
118.068
 20
117.437
 11
117.885
 21
117.52
  0
LINE
  8
0
 10
117.885
 20
117.52
 11
117.851
 21
117.54
  0
LINE
  8
0
 10
117.851
 20
117.54
 11
117.693
 21
117.664
  0
LINE
  8
0
 10
117.693
 20
117.664
 11
117.664
 21
117.693
  0
LINE
  8
0
 10
117.664
 20
117.693
 11
117.548
 21
117.839
  0
LINE
  8
0
 10
117.548
 20
117.839
 11
117.527
 21
117.873
  0
LINE
  8
0
 10
117.527
 20
117.873
 11
117.446
 21
118.041
  0
LINE
  8
0
 10
117.446
 20
118.041
 11
117.434
 21
118.079
  0
LINE
  8
0
 10
117.434
 20
118.079
 11
117.393
 21
118.261
  0
LINE
  8
0
 10
117.393
 20
118.261
 11
117.39
 21
118.302
  0
LINE
  8
0
 10
117.39
 20
118.302
 11
117.39
 21
118.488
  0
LINE
  8
0
 10
117.39
 20
118.488
 11
117.398
 21
118.528
  0
LINE
  8
0
 10
117.398
 20
118.528
 11
117.439
 21
118.71
  0
LINE
  8
0
 10
117.439
 20
118.71
 11
117.537
 21
118.914
  0
LINE
  8
0
 10
117.537
 20
118.914
 11
117.678
 21
119.092
  0
LINE
  8
0
 10
117.678
 20
119.092
 11
117.855
 21
119.233
  0
LINE
  8
0
 10
117.855
 20
119.233
 11
118.06
 21
119.33
  0
LINE
  8
0
 10
118.06
 20
119.33
 11
118.242
 21
119.372
  0
LINE
  8
0
 10
118.242
 20
119.372
 11
118.281
 21
119.379
  0
LINE
  8
0
 10
118.281
 20
119.379
 11
118.468
 21
119.379
  0
LINE
  8
0
 10
118.468
 20
119.379
 11
118.508
 21
119.377
  0
LINE
  8
0
 10
118.508
 20
119.377
 11
118.69
 21
119.335
  0
LINE
  8
0
 10
118.69
 20
119.335
 11
118.728
 21
119.323
  0
LINE
  8
0
 10
118.728
 20
119.323
 11
118.897
 21
119.242
  0
LINE
  8
0
 10
118.897
 20
119.242
 11
118.931
 21
119.222
  0
LINE
  8
0
 10
118.931
 20
119.222
 11
119.077
 21
119.105
  0
LINE
  8
0
 10
119.077
 20
119.105
 11
119.105
 21
119.077
  0
LINE
  8
0
 10
119.105
 20
119.077
 11
119.229
 21
118.919
  0
LINE
  8
0
 10
119.229
 20
118.919
 11
119.25
 21
118.884
  0
LINE
  8
0
 10
119.25
 20
118.884
 11
119.332
 21
118.701
  0
LINE
  8
0
 10
119.332
 20
118.701
 11
119.344
 21
118.663
  0
LINE
  8
0
 10
119.344
 20
118.663
 11
119.381
 21
118.465
  0
LINE
  8
0
 10
119.381
 20
118.465
 11
119.383
 21
118.425
  0
LINE
  8
0
 10
119.383
 20
118.425
 11
119.371
 21
118.224
  0
LINE
  8
0
 10
119.371
 20
118.224
 11
119.364
 21
118.185
  0
LINE
  8
0
 10
119.364
 20
118.185
 11
119.304
 21
117.993
  0
LINE
  8
0
 10
119.304
 20
117.993
 11
119.287
 21
117.957
  0
LINE
  8
0
 10
119.287
 20
117.957
 11
119.183
 21
117.785
  0
LINE
  8
0
 10
119.183
 20
117.785
 11
119.159
 21
117.753
  0
LINE
  8
0
 10
119.159
 20
117.753
 11
119.017
 21
117.611
  0
LINE
  8
0
 10
119.017
 20
117.611
 11
118.985
 21
117.586
  0
LINE
  8
0
 10
118.985
 20
117.586
 11
118.813
 21
117.482
  0
LINE
  8
0
 10
118.813
 20
117.482
 11
118.776
 21
117.466
  0
LINE
  8
0
 10
118.776
 20
117.466
 11
118.585
 21
117.406
  0
LINE
  8
0
 10
118.585
 20
117.406
 11
118.545
 21
117.399
  0
LINE
  8
0
 10
118.545
 20
117.399
 11
118.345
 21
117.387
  0
LINE
  8
0
 10
118.345
 20
117.387
 11
118.304
 21
117.389
  0
LINE
  8
0
 10
84
 20
86.5
 11
84
 21
113.5
  0
LINE
  8
0
 10
84
 20
113.5
 11
116
 21
113.5
  0
LINE
  8
0
 10
116
 20
113.5
 11
116
 21
86.5
  0
LINE
  8
0
 10
116
 20
86.5
 11
84
 21
86.5
  0
LINE
  8
0
 10
81.532
 20
80.6208
 11
81.4919
 21
80.6232
  0
LINE
  8
0
 10
81.4919
 20
80.6232
 11
81.3099
 21
80.6647
  0
LINE
  8
0
 10
81.3099
 20
80.6647
 11
81.2716
 21
80.6767
  0
LINE
  8
0
 10
81.2716
 20
80.6767
 11
81.1035
 21
80.7576
  0
LINE
  8
0
 10
81.1035
 20
80.7576
 11
81.0691
 21
80.7784
  0
LINE
  8
0
 10
81.0691
 20
80.7784
 11
80.9232
 21
80.8948
  0
LINE
  8
0
 10
80.9232
 20
80.8948
 11
80.8948
 21
80.9232
  0
LINE
  8
0
 10
80.8948
 20
80.9232
 11
80.7709
 21
81.0813
  0
LINE
  8
0
 10
80.7709
 20
81.0813
 11
80.7501
 21
81.1157
  0
LINE
  8
0
 10
80.7501
 20
81.1157
 11
80.6676
 21
81.2989
  0
LINE
  8
0
 10
80.6676
 20
81.2989
 11
80.6557
 21
81.3372
  0
LINE
  8
0
 10
80.6557
 20
81.3372
 11
80.6195
 21
81.5349
  0
LINE
  8
0
 10
80.6195
 20
81.5349
 11
80.617
 21
81.575
  0
LINE
  8
0
 10
80.617
 20
81.575
 11
80.6292
 21
81.7755
  0
LINE
  8
0
 10
80.6292
 20
81.7755
 11
80.6364
 21
81.815
  0
LINE
  8
0
 10
80.6364
 20
81.815
 11
80.6962
 21
82.0068
  0
LINE
  8
0
 10
80.6962
 20
82.0068
 11
80.7127
 21
82.0435
  0
LINE
  8
0
 10
80.7127
 20
82.0435
 11
80.8166
 21
82.2154
  0
LINE
  8
0
 10
80.8166
 20
82.2154
 11
80.8414
 21
82.247
  0
LINE
  8
0
 10
80.8414
 20
82.247
 11
80.9834
 21
82.3891
  0
LINE
  8
0
 10
80.9834
 20
82.3891
 11
81.0151
 21
82.4138
  0
LINE
  8
0
 10
81.0151
 20
82.4138
 11
81.187
 21
82.5178
  0
LINE
  8
0
 10
81.187
 20
82.5178
 11
81.2236
 21
82.5343
  0
LINE
  8
0
 10
81.2236
 20
82.5343
 11
81.4154
 21
82.594
  0
LINE
  8
0
 10
81.4154
 20
82.594
 11
81.4549
 21
82.6013
  0
LINE
  8
0
 10
81.4549
 20
82.6013
 11
81.6555
 21
82.6134
  0
LINE
  8
0
 10
81.6555
 20
82.6134
 11
81.6956
 21
82.611
  0
LINE
  8
0
 10
81.6956
 20
82.611
 11
81.8932
 21
82.5748
  0
LINE
  8
0
 10
81.8932
 20
82.5748
 11
81.9315
 21
82.5628
  0
LINE
  8
0
 10
81.9315
 20
82.5628
 11
82.1147
 21
82.4803
  0
LINE
  8
0
 10
82.1147
 20
82.4803
 11
82.1491
 21
82.4596
  0
LINE
  8
0
 10
82.1491
 20
82.4596
 11
82.3073
 21
82.3357
  0
LINE
  8
0
 10
82.3073
 20
82.3357
 11
82.3357
 21
82.3073
  0
LINE
  8
0
 10
82.3357
 20
82.3073
 11
82.452
 21
82.1614
  0
LINE
  8
0
 10
82.452
 20
82.1614
 11
82.4728
 21
82.127
  0
LINE
  8
0
 10
82.4728
 20
82.127
 11
82.5538
 21
81.9588
  0
LINE
  8
0
 10
82.5538
 20
81.9588
 11
82.5657
 21
81.9205
  0
LINE
  8
0
 10
82.5657
 20
81.9205
 11
82.6073
 21
81.7386
  0
LINE
  8
0
 10
82.6073
 20
81.7386
 11
82.6097
 21
81.6985
  0
LINE
  8
0
 10
82.6097
 20
81.6985
 11
82.6097
 21
81.5119
  0
LINE
  8
0
 10
82.6097
 20
81.5119
 11
82.6024
 21
81.4723
  0
LINE
  8
0
 10
82.6024
 20
81.4723
 11
82.5609
 21
81.2904
  0
LINE
  8
0
 10
82.5609
 20
81.2904
 11
82.4635
 21
81.0856
  0
LINE
  8
0
 10
82.4635
 20
81.0856
 11
82.3223
 21
80.9081
  0
LINE
  8
0
 10
82.3223
 20
80.9081
 11
82.1448
 21
80.767
  0
LINE
  8
0
 10
82.1448
 20
80.767
 11
81.94
 21
80.6695
  0
LINE
  8
0
 10
81.94
 20
80.6695
 11
81.7581
 21
80.628
  0
LINE
  8
0
 10
81.7581
 20
80.628
 11
81.7186
 21
80.6208
  0
LINE
  8
0
 10
81.7186
 20
80.6208
 11
81.532
 21
80.6208
  0
LINE
  8
0
 10
118.224
 20
80.6292
 11
118.185
 21
80.6364
  0
LINE
  8
0
 10
118.185
 20
80.6364
 11
117.993
 21
80.6962
  0
LINE
  8
0
 10
117.993
 20
80.6962
 11
117.957
 21
80.7127
  0
LINE
  8
0
 10
117.957
 20
80.7127
 11
117.785
 21
80.8166
  0
LINE
  8
0
 10
117.785
 20
80.8166
 11
117.753
 21
80.8414
  0
LINE
  8
0
 10
117.753
 20
80.8414
 11
117.611
 21
80.9834
  0
LINE
  8
0
 10
117.611
 20
80.9834
 11
117.586
 21
81.0151
  0
LINE
  8
0
 10
117.586
 20
81.0151
 11
117.482
 21
81.187
  0
LINE
  8
0
 10
117.482
 20
81.187
 11
117.466
 21
81.2236
  0
LINE
  8
0
 10
117.466
 20
81.2236
 11
117.406
 21
81.4154
  0
LINE
  8
0
 10
117.406
 20
81.4154
 11
117.399
 21
81.4549
  0
LINE
  8
0
 10
117.399
 20
81.4549
 11
117.387
 21
81.6555
  0
LINE
  8
0
 10
117.387
 20
81.6555
 11
117.389
 21
81.6956
  0
LINE
  8
0
 10
117.389
 20
81.6956
 11
117.425
 21
81.8932
  0
LINE
  8
0
 10
117.425
 20
81.8932
 11
117.437
 21
81.9315
  0
LINE
  8
0
 10
117.437
 20
81.9315
 11
117.52
 21
82.1147
  0
LINE
  8
0
 10
117.52
 20
82.1147
 11
117.54
 21
82.1491
  0
LINE
  8
0
 10
117.54
 20
82.1491
 11
117.664
 21
82.3073
  0
LINE
  8
0
 10
117.664
 20
82.3073
 11
117.693
 21
82.3357
  0
LINE
  8
0
 10
117.693
 20
82.3357
 11
117.839
 21
82.452
  0
LINE
  8
0
 10
117.839
 20
82.452
 11
117.873
 21
82.4728
  0
LINE
  8
0
 10
117.873
 20
82.4728
 11
118.041
 21
82.5538
  0
LINE
  8
0
 10
118.041
 20
82.5538
 11
118.079
 21
82.5657
  0
LINE
  8
0
 10
118.079
 20
82.5657
 11
118.261
 21
82.6073
  0
LINE
  8
0
 10
118.261
 20
82.6073
 11
118.302
 21
82.6097
  0
LINE
  8
0
 10
118.302
 20
82.6097
 11
118.488
 21
82.6097
  0
LINE
  8
0
 10
118.488
 20
82.6097
 11
118.528
 21
82.6024
  0
LINE
  8
0
 10
118.528
 20
82.6024
 11
118.71
 21
82.5609
  0
LINE
  8
0
 10
118.71
 20
82.5609
 11
118.914
 21
82.4635
  0
LINE
  8
0
 10
118.914
 20
82.4635
 11
119.092
 21
82.3223
  0
LINE
  8
0
 10
119.092
 20
82.3223
 11
119.233
 21
82.1448
  0
LINE
  8
0
 10
119.233
 20
82.1448
 11
119.33
 21
81.94
  0
LINE
  8
0
 10
119.33
 20
81.94
 11
119.372
 21
81.7581
  0
LINE
  8
0
 10
119.372
 20
81.7581
 11
119.379
 21
81.7186
  0
LINE
  8
0
 10
119.379
 20
81.7186
 11
119.379
 21
81.532
  0
LINE
  8
0
 10
119.379
 20
81.532
 11
119.377
 21
81.4919
  0
LINE
  8
0
 10
119.377
 20
81.4919
 11
119.335
 21
81.3099
  0
LINE
  8
0
 10
119.335
 20
81.3099
 11
119.323
 21
81.2716
  0
LINE
  8
0
 10
119.323
 20
81.2716
 11
119.242
 21
81.1035
  0
LINE
  8
0
 10
119.242
 20
81.1035
 11
119.222
 21
81.0691
  0
LINE
  8
0
 10
119.222
 20
81.0691
 11
119.105
 21
80.9232
  0
LINE
  8
0
 10
119.105
 20
80.9232
 11
119.077
 21
80.8948
  0
LINE
  8
0
 10
119.077
 20
80.8948
 11
118.919
 21
80.7709
  0
LINE
  8
0
 10
118.919
 20
80.7709
 11
118.884
 21
80.7501
  0
LINE
  8
0
 10
118.884
 20
80.7501
 11
118.701
 21
80.6676
  0
LINE
  8
0
 10
118.701
 20
80.6676
 11
118.663
 21
80.6557
  0
LINE
  8
0
 10
118.663
 20
80.6557
 11
118.465
 21
80.6195
  0
LINE
  8
0
 10
118.465
 20
80.6195
 11
118.425
 21
80.617
  0
LINE
  8
0
 10
118.425
 20
80.617
 11
118.224
 21
80.6292
  0
LINE
  8
0
 10
66.95
 20
64.6
 11
66.95
 21
65.4
  0
LINE
  8
0
 10
66.95
 20
65.4
 11
133.05
 21
65.4
  0
LINE
  8
0
 10
133.05
 20
65.4
 11
133.05
 21
64.6
  0
LINE
  8
0
 10
133.05
 20
64.6
 11
66.95
 21
64.6
  0
LINE
  8
0
 10
134.75
 20
35
 11
133
 21
35
  0
LINE
  8
0
 10
133
 20
35
 11
133
 21
41
  0
LINE
  8
0
 10
133
 20
41
 11
67
 21
41
  0
LINE
  8
0
 10
67
 20
41
 11
67
 21
35
  0
LINE
  8
0
 10
67
 20
35
 11
65.25
 21
35
  0
LINE
  8
0
 10
65.25
 20
35
 11
84
 21
14
  0
LINE
  8
0
 10
84
 20
14
 11
116
 21
14
  0
LINE
  8
0
 10
116
 20
14
 11
134.75
 21
35
  0
LINE
  8
0
 10
40
 20
40
 11
-40
 21
40
  0
LINE
  8
0
 10
-40
 20
40
 11
-40
 21
-40
  0
LINE
  8
0
 10
-40
 20
-40
 11
40
 21
-40
  0
LINE
  8
0
 10
40
 20
-40
 11
40
 21
40
  0
LINE
  8
0
 10
83.5
 20
-13.5
 11
83.5
 21
13.5
  0
LINE
  8
0
 10
83.5
 20
13.5
 11
65
 21
34.75
  0
LINE
  8
0
 10
65
 20
34.75
 11
65
 21
33
  0
LINE
  8
0
 10
65
 20
33
 11
59
 21
33
  0
LINE
  8
0
 10
59
 20
33
 11
59
 21
-33
  0
LINE
  8
0
 10
59
 20
-33
 11
65
 21
-33
  0
LINE
  8
0
 10
65
 20
-33
 11
65
 21
-34.75
  0
LINE
  8
0
 10
65
 20
-34.75
 11
83.5
 21
-13.5
  0
LINE
  8
0
 10
135
 20
-33
 11
141
 21
-33
  0
LINE
  8
0
 10
141
 20
-33
 11
141
 21
33
  0
LINE
  8
0
 10
141
 20
33
 11
135
 21
33
  0
LINE
  8
0
 10
135
 20
33
 11
135
 21
34.75
  0
LINE
  8
0
 10
135
 20
34.75
 11
116.5
 21
13.5
  0
LINE
  8
0
 10
116.5
 20
13.5
 11
116.5
 21
-13.5
  0
LINE
  8
0
 10
116.5
 20
-13.5
 11
135
 21
-34.75
  0
LINE
  8
0
 10
135
 20
-34.75
 11
135
 21
-33
  0
LINE
  8
0
 10
133
 20
-35
 11
134.75
 21
-35
  0
LINE
  8
0
 10
134.75
 20
-35
 11
116
 21
-14
  0
LINE
  8
0
 10
116
 20
-14
 11
84
 21
-14
  0
LINE
  8
0
 10
84
 20
-14
 11
65.25
 21
-35
  0
LINE
  8
0
 10
65.25
 20
-35
 11
67
 21
-35
  0
LINE
  8
0
 10
67
 20
-35
 11
67
 21
-41
  0
LINE
  8
0
 10
67
 20
-41
 11
133
 21
-41
  0
LINE
  8
0
 10
133
 20
-41
 11
133
 21
-35
  0
ENDSEC
  0
SECTION
  2
OBJECTS
  0
DICTIONARY
  0
ENDSEC
  0
EOF
