<?xml version="1.0" encoding="UTF-8" standalone="no"?>
<svg
   xmlns:dc="http://purl.org/dc/elements/1.1/"
   xmlns:cc="http://creativecommons.org/ns#"
   xmlns:rdf="http://www.w3.org/1999/02/22-rdf-syntax-ns#"
   xmlns:svg="http://www.w3.org/2000/svg"
   xmlns="http://www.w3.org/2000/svg"
   xmlns:sodipodi="http://sodipodi.sourceforge.net/DTD/sodipodi-0.dtd"
   xmlns:inkscape="http://www.inkscape.org/namespaces/inkscape"
   width="181"
   height="177"
   viewBox="-40 -136 181 177"
   version="1.1"
   id="svg6"
   sodipodi:docname="Film_Cut.svg"
   inkscape:version="0.92.1 r15371">
  <metadata
     id="metadata12">
    <rdf:RDF>
      <cc:Work
         rdf:about="">
        <dc:format>image/svg+xml</dc:format>
        <dc:type
           rdf:resource="http://purl.org/dc/dcmitype/StillImage" />
      </cc:Work>
    </rdf:RDF>
  </metadata>
  <defs
     id="defs10" />
  <sodipodi:namedview
     pagecolor="#ffffff"
     bordercolor="#666666"
     borderopacity="1"
     objecttolerance="10"
     gridtolerance="10"
     guidetolerance="10"
     inkscape:pageopacity="0"
     inkscape:pageshadow="2"
     inkscape:window-width="1920"
     inkscape:window-height="1135"
     id="namedview8"
     showgrid="false"
     inkscape:zoom="3.7712362"
     inkscape:cx="85.79798"
     inkscape:cy="83.501095"
     inkscape:window-x="0"
     inkscape:window-y="0"
     inkscape:window-maximized="1"
     inkscape:current-layer="svg6" />
  <title
     id="title2">OpenSCAD Model</title>
  <path
     d=" M 136,-136 L 64,-136 L 64,-64 L 136,-64 z M 66.95,-134.6 L 66.95,-135.4 L 133.05,-135.4 L 133.05,-134.6 z M 64.6,-66.95 L 64.6,-133.05 L 65.4,-133.05 L 65.4,-66.95 z M 134.6,-66.95 L 134.6,-133.05 L 135.4,-133.05 L 135.4,-66.95 z M 81.5119,-117.39 L 81.4723,-117.398 L 81.2904,-117.439 L 81.0856,-117.537 L 80.9081,-117.678 L 80.767,-117.855  L 80.6695,-118.06 L 80.628,-118.242 L 80.6208,-118.281 L 80.6208,-118.468 L 80.6232,-118.508 L 80.6647,-118.69  L 80.6767,-118.728 L 80.7576,-118.897 L 80.7784,-118.931 L 80.8948,-119.077 L 80.9232,-119.105 L 81.0813,-119.229  L 81.1157,-119.25 L 81.2989,-119.332 L 81.3372,-119.344 L 81.5349,-119.381 L 81.575,-119.383 L 81.7755,-119.371  L 81.815,-119.364 L 82.0068,-119.304 L 82.0435,-119.287 L 82.2154,-119.183 L 82.247,-119.159 L 82.3891,-119.017  L 82.4138,-118.985 L 82.5178,-118.813 L 82.5343,-118.776 L 82.594,-118.585 L 82.6013,-118.545 L 82.6134,-118.345  L 82.611,-118.304 L 82.5748,-118.107 L 82.5628,-118.068 L 82.4803,-117.885 L 82.4596,-117.851 L 82.3357,-117.693  L 82.3073,-117.664 L 82.1614,-117.548 L 82.127,-117.527 L 81.9588,-117.446 L 81.9205,-117.434 L 81.7386,-117.393  L 81.6985,-117.39 z M 118.304,-117.389 L 118.107,-117.425 L 118.068,-117.437 L 117.885,-117.52 L 117.851,-117.54 L 117.693,-117.664  L 117.664,-117.693 L 117.548,-117.839 L 117.527,-117.873 L 117.446,-118.041 L 117.434,-118.079 L 117.393,-118.261  L 117.39,-118.302 L 117.39,-118.488 L 117.398,-118.528 L 117.439,-118.71 L 117.537,-118.914 L 117.678,-119.092  L 117.855,-119.233 L 118.06,-119.33 L 118.242,-119.372 L 118.281,-119.379 L 118.468,-119.379 L 118.508,-119.377  L 118.69,-119.335 L 118.728,-119.323 L 118.897,-119.242 L 118.931,-119.222 L 119.077,-119.105 L 119.105,-119.077  L 119.229,-118.919 L 119.25,-118.884 L 119.332,-118.701 L 119.344,-118.663 L 119.381,-118.465 L 119.383,-118.425  L 119.371,-118.224 L 119.364,-118.185 L 119.304,-117.993 L 119.287,-117.957 L 119.183,-117.785 L 119.159,-117.753  L 119.017,-117.611 L 118.985,-117.586 L 118.813,-117.482 L 118.776,-117.466 L 118.585,-117.406 L 118.545,-117.399  L 118.345,-117.387 z M 84,-86.5 L 84,-113.5 L 116,-113.5 L 116,-86.5 z M 81.532,-80.6208 L 81.4919,-80.6232 L 81.3099,-80.6647 L 81.2716,-80.6767 L 81.1035,-80.7576 L 81.0691,-80.7784  L 80.9232,-80.8948 L 80.8948,-80.9232 L 80.7709,-81.0813 L 80.7501,-81.1157 L 80.6676,-81.2989 L 80.6557,-81.3372  L 80.6195,-81.5349 L 80.617,-81.575 L 80.6292,-81.7755 L 80.6364,-81.815 L 80.6962,-82.0068 L 80.7127,-82.0435  L 80.8166,-82.2154 L 80.8414,-82.247 L 80.9834,-82.3891 L 81.0151,-82.4138 L 81.187,-82.5178 L 81.2236,-82.5343  L 81.4154,-82.594 L 81.4549,-82.6013 L 81.6555,-82.6134 L 81.6956,-82.611 L 81.8932,-82.5748 L 81.9315,-82.5628  L 82.1147,-82.4803 L 82.1491,-82.4596 L 82.3073,-82.3357 L 82.3357,-82.3073 L 82.452,-82.1614 L 82.4728,-82.127  L 82.5538,-81.9588 L 82.5657,-81.9205 L 82.6073,-81.7386 L 82.6097,-81.6985 L 82.6097,-81.5119 L 82.6024,-81.4723  L 82.5609,-81.2904 L 82.4635,-81.0856 L 82.3223,-80.9081 L 82.1448,-80.767 L 81.94,-80.6695 L 81.7581,-80.628  L 81.7186,-80.6208 z M 118.224,-80.6292 L 118.185,-80.6364 L 117.993,-80.6962 L 117.957,-80.7127 L 117.785,-80.8166 L 117.753,-80.8414  L 117.611,-80.9834 L 117.586,-81.0151 L 117.482,-81.187 L 117.466,-81.2236 L 117.406,-81.4154 L 117.399,-81.4549  L 117.387,-81.6555 L 117.389,-81.6956 L 117.425,-81.8932 L 117.437,-81.9315 L 117.52,-82.1147 L 117.54,-82.1491  L 117.664,-82.3073 L 117.693,-82.3357 L 117.839,-82.452 L 117.873,-82.4728 L 118.041,-82.5538 L 118.079,-82.5657  L 118.261,-82.6073 L 118.302,-82.6097 L 118.488,-82.6097 L 118.528,-82.6024 L 118.71,-82.5609 L 118.914,-82.4635  L 119.092,-82.3223 L 119.233,-82.1448 L 119.33,-81.94 L 119.372,-81.7581 L 119.379,-81.7186 L 119.379,-81.532  L 119.377,-81.4919 L 119.335,-81.3099 L 119.323,-81.2716 L 119.242,-81.1035 L 119.222,-81.0691 L 119.105,-80.9232  L 119.077,-80.8948 L 118.919,-80.7709 L 118.884,-80.7501 L 118.701,-80.6676 L 118.663,-80.6557 L 118.465,-80.6195  L 118.425,-80.617 z M 66.95,-64.6 L 66.95,-65.4 L 133.05,-65.4 L 133.05,-64.6 z M 134.75,-35 L 133,-35 L 133,-41 L 67,-41 L 67,-35 L 65.25,-35  L 84,-14 L 116,-14 z M 40,-40 L -40,-40 L -40,40 L 40,40 z M 83.5,13.5 L 83.5,-13.5 L 65,-34.75 L 65,-33 L 59,-33 L 59,33  L 65,33 L 65,34.75 z M 135,33 L 141,33 L 141,-33 L 135,-33 L 135,-34.75 L 116.5,-13.5  L 116.5,13.5 L 135,34.75 z M 133,35 L 134.75,35 L 116,14 L 84,14 L 65.25,35 L 67,35  L 67,41 L 133,41 z "
     stroke="black"
     fill="lightgray"
     stroke-width="0.5"
     id="path4"
     style="fill:none;stroke:#ff0000;stroke-width:0.18897638;stroke-miterlimit:4;stroke-dasharray:none" />
</svg>
