  0
SECTION
  2
BLOCKS
  0
ENDSEC
  0
SECTION
  2
ENTITIES
  0
LINE
  8
0
 10
0.863037
 20
-10.9661
 11
1.72076
 21
-10.8646
  0
LINE
  8
0
 10
1.72076
 20
-10.8646
 11
2.56789
 21
-10.6961
  0
LINE
  8
0
 10
2.56789
 20
-10.6961
 11
3.39919
 21
-10.4616
  0
LINE
  8
0
 10
3.39919
 20
-10.4616
 11
4.2095
 21
-10.1627
  0
LINE
  8
0
 10
4.2095
 20
-10.1627
 11
4.99388
 21
-9.80107
  0
LINE
  8
0
 10
4.99388
 20
-9.80107
 11
5.74748
 21
-9.37903
  0
LINE
  8
0
 10
5.74748
 20
-9.37903
 11
6.46564
 21
-8.89919
  0
LINE
  8
0
 10
6.46564
 20
-8.89919
 11
7.14392
 21
-8.36446
  0
LINE
  8
0
 10
7.14392
 20
-8.36446
 11
7.77817
 21
-7.77817
  0
LINE
  8
0
 10
7.77817
 20
-7.77817
 11
8.36446
 21
-7.14392
  0
LINE
  8
0
 10
8.36446
 20
-7.14392
 11
8.89919
 21
-6.46564
  0
LINE
  8
0
 10
8.89919
 20
-6.46564
 11
9.37903
 21
-5.74748
  0
LINE
  8
0
 10
9.37903
 20
-5.74748
 11
9.80107
 21
-4.99388
  0
LINE
  8
0
 10
9.80107
 20
-4.99388
 11
10.1627
 21
-4.2095
  0
LINE
  8
0
 10
10.1627
 20
-4.2095
 11
10.4616
 21
-3.39919
  0
LINE
  8
0
 10
10.4616
 20
-3.39919
 11
10.6961
 21
-2.56789
  0
LINE
  8
0
 10
10.6961
 20
-2.56789
 11
10.8646
 21
-1.72076
  0
LINE
  8
0
 10
10.8646
 20
-1.72076
 11
10.9661
 21
-0.863037
  0
LINE
  8
0
 10
10.9661
 20
-0.863037
 11
11
 21
0
  0
LINE
  8
0
 10
11
 20
0
 11
10.9661
 21
0.863037
  0
LINE
  8
0
 10
10.9661
 20
0.863037
 11
10.8646
 21
1.72076
  0
LINE
  8
0
 10
10.8646
 20
1.72076
 11
10.6961
 21
2.56789
  0
LINE
  8
0
 10
10.6961
 20
2.56789
 11
10.4616
 21
3.39919
  0
LINE
  8
0
 10
10.4616
 20
3.39919
 11
10.1627
 21
4.2095
  0
LINE
  8
0
 10
10.1627
 20
4.2095
 11
9.80107
 21
4.99388
  0
LINE
  8
0
 10
9.80107
 20
4.99388
 11
9.37903
 21
5.74748
  0
LINE
  8
0
 10
9.37903
 20
5.74748
 11
8.89919
 21
6.46564
  0
LINE
  8
0
 10
8.89919
 20
6.46564
 11
8.36446
 21
7.14392
  0
LINE
  8
0
 10
8.36446
 20
7.14392
 11
7.77817
 21
7.77817
  0
LINE
  8
0
 10
7.77817
 20
7.77817
 11
7.14392
 21
8.36446
  0
LINE
  8
0
 10
7.14392
 20
8.36446
 11
6.46564
 21
8.89919
  0
LINE
  8
0
 10
6.46564
 20
8.89919
 11
5.74748
 21
9.37903
  0
LINE
  8
0
 10
5.74748
 20
9.37903
 11
4.99388
 21
9.80107
  0
LINE
  8
0
 10
4.99388
 20
9.80107
 11
4.2095
 21
10.1627
  0
LINE
  8
0
 10
4.2095
 20
10.1627
 11
3.39919
 21
10.4616
  0
LINE
  8
0
 10
3.39919
 20
10.4616
 11
2.56789
 21
10.6961
  0
LINE
  8
0
 10
2.56789
 20
10.6961
 11
1.72076
 21
10.8646
  0
LINE
  8
0
 10
1.72076
 20
10.8646
 11
0.863037
 21
10.9661
  0
LINE
  8
0
 10
0.863037
 20
10.9661
 11
0
 21
11
  0
LINE
  8
0
 10
0
 20
11
 11
-0.863037
 21
10.9661
  0
LINE
  8
0
 10
-0.863037
 20
10.9661
 11
-1.72076
 21
10.8646
  0
LINE
  8
0
 10
-1.72076
 20
10.8646
 11
-2.56789
 21
10.6961
  0
LINE
  8
0
 10
-2.56789
 20
10.6961
 11
-3.39919
 21
10.4616
  0
LINE
  8
0
 10
-3.39919
 20
10.4616
 11
-4.2095
 21
10.1627
  0
LINE
  8
0
 10
-4.2095
 20
10.1627
 11
-4.99388
 21
9.80107
  0
LINE
  8
0
 10
-4.99388
 20
9.80107
 11
-5.74748
 21
9.37903
  0
LINE
  8
0
 10
-5.74748
 20
9.37903
 11
-6.46564
 21
8.89919
  0
LINE
  8
0
 10
-6.46564
 20
8.89919
 11
-7.14392
 21
8.36446
  0
LINE
  8
0
 10
-7.14392
 20
8.36446
 11
-7.77817
 21
7.77817
  0
LINE
  8
0
 10
-7.77817
 20
7.77817
 11
-8.36446
 21
7.14392
  0
LINE
  8
0
 10
-8.36446
 20
7.14392
 11
-8.89919
 21
6.46564
  0
LINE
  8
0
 10
-8.89919
 20
6.46564
 11
-9.37903
 21
5.74748
  0
LINE
  8
0
 10
-9.37903
 20
5.74748
 11
-9.80107
 21
4.99388
  0
LINE
  8
0
 10
-9.80107
 20
4.99388
 11
-10.1627
 21
4.2095
  0
LINE
  8
0
 10
-10.1627
 20
4.2095
 11
-10.4616
 21
3.39919
  0
LINE
  8
0
 10
-10.4616
 20
3.39919
 11
-10.6961
 21
2.56789
  0
LINE
  8
0
 10
-10.6961
 20
2.56789
 11
-10.8646
 21
1.72076
  0
LINE
  8
0
 10
-10.8646
 20
1.72076
 11
-10.9661
 21
0.863037
  0
LINE
  8
0
 10
-10.9661
 20
0.863037
 11
-11
 21
0
  0
LINE
  8
0
 10
-11
 20
0
 11
-10.9661
 21
-0.863037
  0
LINE
  8
0
 10
-10.9661
 20
-0.863037
 11
-10.8646
 21
-1.72076
  0
LINE
  8
0
 10
-10.8646
 20
-1.72076
 11
-10.6961
 21
-2.56789
  0
LINE
  8
0
 10
-10.6961
 20
-2.56789
 11
-10.4616
 21
-3.39919
  0
LINE
  8
0
 10
-10.4616
 20
-3.39919
 11
-10.1627
 21
-4.2095
  0
LINE
  8
0
 10
-10.1627
 20
-4.2095
 11
-9.80107
 21
-4.99388
  0
LINE
  8
0
 10
-9.80107
 20
-4.99388
 11
-9.37903
 21
-5.74748
  0
LINE
  8
0
 10
-9.37903
 20
-5.74748
 11
-8.89919
 21
-6.46564
  0
LINE
  8
0
 10
-8.89919
 20
-6.46564
 11
-8.36446
 21
-7.14392
  0
LINE
  8
0
 10
-8.36446
 20
-7.14392
 11
-7.77817
 21
-7.77817
  0
LINE
  8
0
 10
-7.77817
 20
-7.77817
 11
-7.14392
 21
-8.36446
  0
LINE
  8
0
 10
-7.14392
 20
-8.36446
 11
-6.46564
 21
-8.89919
  0
LINE
  8
0
 10
-6.46564
 20
-8.89919
 11
-5.74748
 21
-9.37903
  0
LINE
  8
0
 10
-5.74748
 20
-9.37903
 11
-4.99388
 21
-9.80107
  0
LINE
  8
0
 10
-4.99388
 20
-9.80107
 11
-4.2095
 21
-10.1627
  0
LINE
  8
0
 10
-4.2095
 20
-10.1627
 11
-3.39919
 21
-10.4616
  0
LINE
  8
0
 10
-3.39919
 20
-10.4616
 11
-2.56789
 21
-10.6961
  0
LINE
  8
0
 10
-2.56789
 20
-10.6961
 11
-1.72076
 21
-10.8646
  0
LINE
  8
0
 10
-1.72076
 20
-10.8646
 11
-0.863037
 21
-10.9661
  0
LINE
  8
0
 10
-0.863037
 20
-10.9661
 11
0
 21
-11
  0
LINE
  8
0
 10
0
 20
-11
 11
0.863037
 21
-10.9661
  0
LINE
  8
0
 10
-7.77814
 20
7.77817
 11
-7.14391
 21
8.36444
  0
LINE
  8
0
 10
-7.14391
 20
8.36444
 11
-6.46561
 21
8.89917
  0
LINE
  8
0
 10
-6.46561
 20
8.89917
 11
-5.74745
 21
9.37903
  0
LINE
  8
0
 10
-5.74745
 20
9.37903
 11
-4.99385
 21
9.80106
  0
LINE
  8
0
 10
-4.99385
 20
9.80106
 11
-4.20949
 21
10.1627
  0
LINE
  8
0
 10
-4.20949
 20
10.1627
 11
-3.39917
 21
10.4616
  0
LINE
  8
0
 10
-3.39917
 20
10.4616
 11
-2.56789
 21
10.696
  0
LINE
  8
0
 10
-2.56789
 20
10.696
 11
-1.72076
 21
10.8645
  0
LINE
  8
0
 10
-1.72076
 20
10.8645
 11
-0.863022
 21
10.9661
  0
LINE
  8
0
 10
-0.863022
 20
10.9661
 11
0
 21
11
  0
LINE
  8
0
 10
0
 20
11
 11
-0.191574
 21
10.9761
  0
LINE
  8
0
 10
-0.191574
 20
10.9761
 11
-0.382324
 21
10.9489
  0
LINE
  8
0
 10
-0.382324
 20
10.9489
 11
-0.572174
 21
10.9183
  0
LINE
  8
0
 10
-0.572174
 20
10.9183
 11
-0.761093
 21
10.8845
  0
LINE
  8
0
 10
-0.761093
 20
10.8845
 11
-0.949005
 21
10.8474
  0
LINE
  8
0
 10
-0.949005
 20
10.8474
 11
-1.13585
 21
10.8071
  0
LINE
  8
0
 10
-1.13585
 20
10.8071
 11
-1.32158
 21
10.7636
  0
LINE
  8
0
 10
-1.32158
 20
10.7636
 11
-1.50613
 21
10.7169
  0
LINE
  8
0
 10
-1.50613
 20
10.7169
 11
-1.68948
 21
10.667
  0
LINE
  8
0
 10
-1.68948
 20
10.667
 11
-1.87152
 21
10.614
  0
LINE
  8
0
 10
-1.87152
 20
10.614
 11
-2.05223
 21
10.5579
  0
LINE
  8
0
 10
-2.05223
 20
10.5579
 11
-2.23157
 21
10.4988
  0
LINE
  8
0
 10
-2.23157
 20
10.4988
 11
-2.40945
 21
10.4366
  0
LINE
  8
0
 10
-2.40945
 20
10.4366
 11
-2.58586
 21
10.3714
  0
LINE
  8
0
 10
-2.58586
 20
10.3714
 11
-2.76071
 21
10.3032
  0
LINE
  8
0
 10
-2.76071
 20
10.3032
 11
-2.93398
 21
10.2321
  0
LINE
  8
0
 10
-2.93398
 20
10.2321
 11
-3.10562
 21
10.1581
  0
LINE
  8
0
 10
-3.10562
 20
10.1581
 11
-3.27556
 21
10.0812
  0
LINE
  8
0
 10
-3.27556
 20
10.0812
 11
-3.44377
 21
10.0015
  0
LINE
  8
0
 10
-3.44377
 20
10.0015
 11
-3.61018
 21
9.91896
  0
LINE
  8
0
 10
-3.61018
 20
9.91896
 11
-3.77478
 21
9.83369
  0
LINE
  8
0
 10
-3.77478
 20
9.83369
 11
-3.93752
 21
9.74571
  0
LINE
  8
0
 10
-3.93752
 20
9.74571
 11
-4.09831
 21
9.65506
  0
LINE
  8
0
 10
-4.09831
 20
9.65506
 11
-4.25716
 21
9.56177
  0
LINE
  8
0
 10
-4.25716
 20
9.56177
 11
-4.41399
 21
9.46587
  0
LINE
  8
0
 10
-4.41399
 20
9.46587
 11
-4.56877
 21
9.36742
  0
LINE
  8
0
 10
-4.56877
 20
9.36742
 11
-4.72147
 21
9.26645
  0
LINE
  8
0
 10
-4.72147
 20
9.26645
 11
-4.87206
 21
9.16302
  0
LINE
  8
0
 10
-4.87206
 20
9.16302
 11
-5.02045
 21
9.05716
  0
LINE
  8
0
 10
-5.02045
 20
9.05716
 11
-5.16666
 21
8.94891
  0
LINE
  8
0
 10
-5.16666
 20
8.94891
 11
-5.31059
 21
8.83833
  0
LINE
  8
0
 10
-5.31059
 20
8.83833
 11
-5.45226
 21
8.72545
  0
LINE
  8
0
 10
-5.45226
 20
8.72545
 11
-5.59161
 21
8.61034
  0
LINE
  8
0
 10
-5.59161
 20
8.61034
 11
-5.72859
 21
8.49301
  0
LINE
  8
0
 10
-5.72859
 20
8.49301
 11
-5.86319
 21
8.37354
  0
LINE
  8
0
 10
-5.86319
 20
8.37354
 11
-5.99539
 21
8.25195
  0
LINE
  8
0
 10
-5.99539
 20
8.25195
 11
-6.12512
 21
8.12831
  0
LINE
  8
0
 10
-6.12512
 20
8.12831
 11
-6.25237
 21
8.00267
  0
LINE
  8
0
 10
-6.25237
 20
8.00267
 11
-6.37709
 21
7.87506
  0
LINE
  8
0
 10
-6.37709
 20
7.87506
 11
-6.49927
 21
7.74554
  0
LINE
  8
0
 10
-6.49927
 20
7.74554
 11
-6.61888
 21
7.61415
  0
LINE
  8
0
 10
-6.61888
 20
7.61415
 11
-6.73589
 21
7.48097
  0
LINE
  8
0
 10
-6.73589
 20
7.48097
 11
-6.85027
 21
7.34602
  0
LINE
  8
0
 10
-6.85027
 20
7.34602
 11
-6.96199
 21
7.20937
  0
LINE
  8
0
 10
-6.96199
 20
7.20937
 11
-7.07103
 21
7.07108
  0
LINE
  8
0
 10
-7.07103
 20
7.07108
 11
-7.77814
 21
7.77817
  0
LINE
  8
0
 10
6.49446
 20
7.60403
 11
5.87784
 21
8.09015
  0
LINE
  8
0
 10
5.87784
 20
8.09015
 11
5.22496
 21
8.52638
  0
LINE
  8
0
 10
5.22496
 20
8.52638
 11
4.53989
 21
8.91003
  0
LINE
  8
0
 10
4.53989
 20
8.91003
 11
3.82683
 21
9.23877
  0
LINE
  8
0
 10
3.82683
 20
9.23877
 11
3.09016
 21
9.51054
  0
LINE
  8
0
 10
3.09016
 20
9.51054
 11
2.33446
 21
9.72368
  0
LINE
  8
0
 10
2.33446
 20
9.72368
 11
1.56435
 21
9.87686
  0
LINE
  8
0
 10
1.56435
 20
9.87686
 11
0.784592
 21
9.96916
  0
LINE
  8
0
 10
0.784592
 20
9.96916
 11
1.52588e-05
 21
9.99997
  0
LINE
  8
0
 10
1.52588e-05
 20
9.99997
 11
0.174911
 21
10.0207
  0
LINE
  8
0
 10
0.174911
 20
10.0207
 11
0.35054
 21
10.0383
  0
LINE
  8
0
 10
0.35054
 20
10.0383
 11
0.52684
 21
10.0529
  0
LINE
  8
0
 10
0.52684
 20
10.0529
 11
0.703751
 21
10.0643
  0
LINE
  8
0
 10
0.703751
 20
10.0643
 11
0.881241
 21
10.0726
  0
LINE
  8
0
 10
0.881241
 20
10.0726
 11
1.05922
 21
10.0778
  0
LINE
  8
0
 10
1.05922
 20
10.0778
 11
1.23764
 21
10.0798
  0
LINE
  8
0
 10
1.23764
 20
10.0798
 11
1.41646
 21
10.0787
  0
LINE
  8
0
 10
1.41646
 20
10.0787
 11
1.59563
 21
10.0744
  0
LINE
  8
0
 10
1.59563
 20
10.0744
 11
1.77507
 21
10.0669
  0
LINE
  8
0
 10
1.77507
 20
10.0669
 11
1.95473
 21
10.0562
  0
LINE
  8
0
 10
1.95473
 20
10.0562
 11
2.13455
 21
10.0423
  0
LINE
  8
0
 10
2.13455
 20
10.0423
 11
2.31448
 21
10.0252
  0
LINE
  8
0
 10
2.31448
 20
10.0252
 11
2.49448
 21
10.0048
  0
LINE
  8
0
 10
2.49448
 20
10.0048
 11
2.67445
 21
9.98123
  0
LINE
  8
0
 10
2.67445
 20
9.98123
 11
2.85437
 21
9.95439
  0
LINE
  8
0
 10
2.85437
 20
9.95439
 11
3.03416
 21
9.92432
  0
LINE
  8
0
 10
3.03416
 20
9.92432
 11
3.21378
 21
9.89098
  0
LINE
  8
0
 10
3.21378
 20
9.89098
 11
3.39314
 21
9.8544
  0
LINE
  8
0
 10
3.39314
 20
9.8544
 11
3.5722
 21
9.81456
  0
LINE
  8
0
 10
3.5722
 20
9.81456
 11
3.75092
 21
9.77147
  0
LINE
  8
0
 10
3.75092
 20
9.77147
 11
3.9292
 21
9.72513
  0
LINE
  8
0
 10
3.9292
 20
9.72513
 11
4.10701
 21
9.67552
  0
LINE
  8
0
 10
4.10701
 20
9.67552
 11
4.28429
 21
9.62267
  0
LINE
  8
0
 10
4.28429
 20
9.62267
 11
4.46097
 21
9.56657
  0
LINE
  8
0
 10
4.46097
 20
9.56657
 11
4.63698
 21
9.50723
  0
LINE
  8
0
 10
4.63698
 20
9.50723
 11
4.81229
 21
9.44466
  0
LINE
  8
0
 10
4.81229
 20
9.44466
 11
4.98682
 21
9.37886
  0
LINE
  8
0
 10
4.98682
 20
9.37886
 11
5.16052
 21
9.30983
  0
LINE
  8
0
 10
5.16052
 20
9.30983
 11
5.33333
 21
9.23759
  0
LINE
  8
0
 10
5.33333
 20
9.23759
 11
5.50517
 21
9.16216
  0
LINE
  8
0
 10
5.50517
 20
9.16216
 11
5.67601
 21
9.08353
  0
LINE
  8
0
 10
5.67601
 20
9.08353
 11
5.84578
 21
9.00172
  0
LINE
  8
0
 10
5.84578
 20
9.00172
 11
6.01442
 21
8.91675
  0
LINE
  8
0
 10
6.01442
 20
8.91675
 11
6.18187
 21
8.82863
  0
LINE
  8
0
 10
6.18187
 20
8.82863
 11
6.34807
 21
8.73738
  0
LINE
  8
0
 10
6.34807
 20
8.73738
 11
6.51297
 21
8.64301
  0
LINE
  8
0
 10
6.51297
 20
8.64301
 11
6.6765
 21
8.54553
  0
LINE
  8
0
 10
6.6765
 20
8.54553
 11
6.83861
 21
8.44498
  0
LINE
  8
0
 10
6.83861
 20
8.44498
 11
6.99924
 21
8.34137
  0
LINE
  8
0
 10
6.99924
 20
8.34137
 11
7.15833
 21
8.23471
  0
LINE
  8
0
 10
7.15833
 20
8.23471
 11
7.31583
 21
8.12505
  0
LINE
  8
0
 10
7.31583
 20
8.12505
 11
7.47166
 21
8.01237
  0
LINE
  8
0
 10
7.47166
 20
8.01237
 11
7.62579
 21
7.89674
  0
LINE
  8
0
 10
7.62579
 20
7.89674
 11
7.77808
 21
7.77824
  0
LINE
  8
0
 10
7.77808
 20
7.77824
 11
7.07089
 21
7.07118
  0
LINE
  8
0
 10
7.07089
 20
7.07118
 11
6.49446
 21
7.60403
  0
LINE
  8
0
 10
-0.783798
 20
-9.9592
 11
-1.56277
 21
-9.867
  0
LINE
  8
0
 10
-1.56277
 20
-9.867
 11
-2.33211
 21
-9.71397
  0
LINE
  8
0
 10
-2.33211
 20
-9.71397
 11
-3.08707
 21
-9.50105
  0
LINE
  8
0
 10
-3.08707
 20
-9.50105
 11
-3.823
 21
-9.22955
  0
LINE
  8
0
 10
-3.823
 20
-9.22955
 11
-4.53535
 21
-8.90115
  0
LINE
  8
0
 10
-4.53535
 20
-8.90115
 11
-5.21976
 21
-8.51787
  0
LINE
  8
0
 10
-5.21976
 20
-8.51787
 11
-5.87196
 21
-8.08208
  0
LINE
  8
0
 10
-5.87196
 20
-8.08208
 11
-6.48798
 21
-7.59645
  0
LINE
  8
0
 10
-6.48798
 20
-7.59645
 11
-7.064
 21
-7.064
  0
LINE
  8
0
 10
-7.064
 20
-7.064
 11
-7.59645
 21
-6.48798
  0
LINE
  8
0
 10
-7.59645
 20
-6.48798
 11
-8.08208
 21
-5.87196
  0
LINE
  8
0
 10
-8.08208
 20
-5.87196
 11
-8.51787
 21
-5.21976
  0
LINE
  8
0
 10
-8.51787
 20
-5.21976
 11
-8.90115
 21
-4.53535
  0
LINE
  8
0
 10
-8.90115
 20
-4.53535
 11
-9.22955
 21
-3.823
  0
LINE
  8
0
 10
-9.22955
 20
-3.823
 11
-9.50105
 21
-3.08707
  0
LINE
  8
0
 10
-9.50105
 20
-3.08707
 11
-9.71397
 21
-2.33211
  0
LINE
  8
0
 10
-9.71397
 20
-2.33211
 11
-9.867
 21
-1.56277
  0
LINE
  8
0
 10
-9.867
 20
-1.56277
 11
-9.9592
 21
-0.783798
  0
LINE
  8
0
 10
-9.9592
 20
-0.783798
 11
-9.98999
 21
0
  0
LINE
  8
0
 10
-9.98999
 20
0
 11
-9.9592
 21
0.783798
  0
LINE
  8
0
 10
-9.9592
 20
0.783798
 11
-9.867
 21
1.56277
  0
LINE
  8
0
 10
-9.867
 20
1.56277
 11
-9.71397
 21
2.33211
  0
LINE
  8
0
 10
-9.71397
 20
2.33211
 11
-9.50105
 21
3.08707
  0
LINE
  8
0
 10
-9.50105
 20
3.08707
 11
-9.22955
 21
3.823
  0
LINE
  8
0
 10
-9.22955
 20
3.823
 11
-8.90115
 21
4.53535
  0
LINE
  8
0
 10
-8.90115
 20
4.53535
 11
-8.51787
 21
5.21976
  0
LINE
  8
0
 10
-8.51787
 20
5.21976
 11
-8.08208
 21
5.87196
  0
LINE
  8
0
 10
-8.08208
 20
5.87196
 11
-7.59645
 21
6.48798
  0
LINE
  8
0
 10
-7.59645
 20
6.48798
 11
-7.064
 21
7.064
  0
LINE
  8
0
 10
-7.064
 20
7.064
 11
-6.48798
 21
7.59645
  0
LINE
  8
0
 10
-6.48798
 20
7.59645
 11
-5.87196
 21
8.08208
  0
LINE
  8
0
 10
-5.87196
 20
8.08208
 11
-5.21976
 21
8.51787
  0
LINE
  8
0
 10
-5.21976
 20
8.51787
 11
-4.53535
 21
8.90115
  0
LINE
  8
0
 10
-4.53535
 20
8.90115
 11
-3.823
 21
9.22955
  0
LINE
  8
0
 10
-3.823
 20
9.22955
 11
-3.08707
 21
9.50105
  0
LINE
  8
0
 10
-3.08707
 20
9.50105
 11
-2.33211
 21
9.71397
  0
LINE
  8
0
 10
-2.33211
 20
9.71397
 11
-1.56277
 21
9.867
  0
LINE
  8
0
 10
-1.56277
 20
9.867
 11
-0.783798
 21
9.9592
  0
LINE
  8
0
 10
-0.783798
 20
9.9592
 11
0
 21
9.98999
  0
LINE
  8
0
 10
0
 20
9.98999
 11
0.783798
 21
9.9592
  0
LINE
  8
0
 10
0.783798
 20
9.9592
 11
1.56277
 21
9.867
  0
LINE
  8
0
 10
1.56277
 20
9.867
 11
2.33211
 21
9.71397
  0
LINE
  8
0
 10
2.33211
 20
9.71397
 11
3.08707
 21
9.50105
  0
LINE
  8
0
 10
3.08707
 20
9.50105
 11
3.823
 21
9.22955
  0
LINE
  8
0
 10
3.823
 20
9.22955
 11
4.53535
 21
8.90115
  0
LINE
  8
0
 10
4.53535
 20
8.90115
 11
5.21976
 21
8.51787
  0
LINE
  8
0
 10
5.21976
 20
8.51787
 11
5.87196
 21
8.08208
  0
LINE
  8
0
 10
5.87196
 20
8.08208
 11
6.48798
 21
7.59645
  0
LINE
  8
0
 10
6.48798
 20
7.59645
 11
7.064
 21
7.064
  0
LINE
  8
0
 10
7.064
 20
7.064
 11
7.59645
 21
6.48798
  0
LINE
  8
0
 10
7.59645
 20
6.48798
 11
8.08208
 21
5.87196
  0
LINE
  8
0
 10
8.08208
 20
5.87196
 11
8.51787
 21
5.21976
  0
LINE
  8
0
 10
8.51787
 20
5.21976
 11
8.90115
 21
4.53535
  0
LINE
  8
0
 10
8.90115
 20
4.53535
 11
9.22955
 21
3.823
  0
LINE
  8
0
 10
9.22955
 20
3.823
 11
9.50105
 21
3.08707
  0
LINE
  8
0
 10
9.50105
 20
3.08707
 11
9.71397
 21
2.33211
  0
LINE
  8
0
 10
9.71397
 20
2.33211
 11
9.867
 21
1.56277
  0
LINE
  8
0
 10
9.867
 20
1.56277
 11
9.9592
 21
0.783798
  0
LINE
  8
0
 10
9.9592
 20
0.783798
 11
9.98999
 21
0
  0
LINE
  8
0
 10
9.98999
 20
0
 11
9.9592
 21
-0.783798
  0
LINE
  8
0
 10
9.9592
 20
-0.783798
 11
9.867
 21
-1.56277
  0
LINE
  8
0
 10
9.867
 20
-1.56277
 11
9.71397
 21
-2.33211
  0
LINE
  8
0
 10
9.71397
 20
-2.33211
 11
9.50105
 21
-3.08707
  0
LINE
  8
0
 10
9.50105
 20
-3.08707
 11
9.22955
 21
-3.823
  0
LINE
  8
0
 10
9.22955
 20
-3.823
 11
8.90115
 21
-4.53535
  0
LINE
  8
0
 10
8.90115
 20
-4.53535
 11
8.51787
 21
-5.21976
  0
LINE
  8
0
 10
8.51787
 20
-5.21976
 11
8.08208
 21
-5.87196
  0
LINE
  8
0
 10
8.08208
 20
-5.87196
 11
7.59645
 21
-6.48798
  0
LINE
  8
0
 10
7.59645
 20
-6.48798
 11
7.064
 21
-7.064
  0
LINE
  8
0
 10
7.064
 20
-7.064
 11
6.48798
 21
-7.59645
  0
LINE
  8
0
 10
6.48798
 20
-7.59645
 11
5.87196
 21
-8.08208
  0
LINE
  8
0
 10
5.87196
 20
-8.08208
 11
5.21976
 21
-8.51787
  0
LINE
  8
0
 10
5.21976
 20
-8.51787
 11
4.53535
 21
-8.90115
  0
LINE
  8
0
 10
4.53535
 20
-8.90115
 11
3.823
 21
-9.22955
  0
LINE
  8
0
 10
3.823
 20
-9.22955
 11
3.08707
 21
-9.50105
  0
LINE
  8
0
 10
3.08707
 20
-9.50105
 11
2.33211
 21
-9.71397
  0
LINE
  8
0
 10
2.33211
 20
-9.71397
 11
1.56277
 21
-9.867
  0
LINE
  8
0
 10
1.56277
 20
-9.867
 11
0.783798
 21
-9.9592
  0
LINE
  8
0
 10
0.783798
 20
-9.9592
 11
0
 21
-9.98999
  0
LINE
  8
0
 10
0
 20
-9.98999
 11
-0.783798
 21
-9.9592
  0
LINE
  8
0
 10
10.9761
 20
0.191574
 11
10.9489
 21
0.382324
  0
LINE
  8
0
 10
10.9489
 20
0.382324
 11
10.9183
 21
0.572174
  0
LINE
  8
0
 10
10.9183
 20
0.572174
 11
10.8845
 21
0.761093
  0
LINE
  8
0
 10
10.8845
 20
0.761093
 11
10.8474
 21
0.949005
  0
LINE
  8
0
 10
10.8474
 20
0.949005
 11
10.8071
 21
1.13585
  0
LINE
  8
0
 10
10.8071
 20
1.13585
 11
10.7636
 21
1.32158
  0
LINE
  8
0
 10
10.7636
 20
1.32158
 11
10.7169
 21
1.50613
  0
LINE
  8
0
 10
10.7169
 20
1.50613
 11
10.667
 21
1.68948
  0
LINE
  8
0
 10
10.667
 20
1.68948
 11
10.614
 21
1.87152
  0
LINE
  8
0
 10
10.614
 20
1.87152
 11
10.5579
 21
2.05223
  0
LINE
  8
0
 10
10.5579
 20
2.05223
 11
10.4988
 21
2.23157
  0
LINE
  8
0
 10
10.4988
 20
2.23157
 11
10.4366
 21
2.40945
  0
LINE
  8
0
 10
10.4366
 20
2.40945
 11
10.3714
 21
2.58586
  0
LINE
  8
0
 10
10.3714
 20
2.58586
 11
10.3032
 21
2.76071
  0
LINE
  8
0
 10
10.3032
 20
2.76071
 11
10.2321
 21
2.93398
  0
LINE
  8
0
 10
10.2321
 20
2.93398
 11
10.1581
 21
3.10562
  0
LINE
  8
0
 10
10.1581
 20
3.10562
 11
10.0812
 21
3.27556
  0
LINE
  8
0
 10
10.0812
 20
3.27556
 11
10.0015
 21
3.44377
  0
LINE
  8
0
 10
10.0015
 20
3.44377
 11
9.91896
 21
3.61018
  0
LINE
  8
0
 10
9.91896
 20
3.61018
 11
9.83369
 21
3.77478
  0
LINE
  8
0
 10
9.83369
 20
3.77478
 11
9.74571
 21
3.93752
  0
LINE
  8
0
 10
9.74571
 20
3.93752
 11
9.65506
 21
4.09831
  0
LINE
  8
0
 10
9.65506
 20
4.09831
 11
9.56177
 21
4.25716
  0
LINE
  8
0
 10
9.56177
 20
4.25716
 11
9.46587
 21
4.41399
  0
LINE
  8
0
 10
9.46587
 20
4.41399
 11
9.36742
 21
4.56877
  0
LINE
  8
0
 10
9.36742
 20
4.56877
 11
9.26645
 21
4.72147
  0
LINE
  8
0
 10
9.26645
 20
4.72147
 11
9.16302
 21
4.87206
  0
LINE
  8
0
 10
9.16302
 20
4.87206
 11
9.05716
 21
5.02045
  0
LINE
  8
0
 10
9.05716
 20
5.02045
 11
8.94891
 21
5.16666
  0
LINE
  8
0
 10
8.94891
 20
5.16666
 11
8.83833
 21
5.31059
  0
LINE
  8
0
 10
8.83833
 20
5.31059
 11
8.72545
 21
5.45226
  0
LINE
  8
0
 10
8.72545
 20
5.45226
 11
8.61034
 21
5.59161
  0
LINE
  8
0
 10
8.61034
 20
5.59161
 11
8.49301
 21
5.72859
  0
LINE
  8
0
 10
8.49301
 20
5.72859
 11
8.37354
 21
5.86319
  0
LINE
  8
0
 10
8.37354
 20
5.86319
 11
8.25195
 21
5.99539
  0
LINE
  8
0
 10
8.25195
 20
5.99539
 11
8.12831
 21
6.12512
  0
LINE
  8
0
 10
8.12831
 20
6.12512
 11
8.00267
 21
6.25237
  0
LINE
  8
0
 10
8.00267
 20
6.25237
 11
7.87506
 21
6.37709
  0
LINE
  8
0
 10
7.87506
 20
6.37709
 11
7.74554
 21
6.49927
  0
LINE
  8
0
 10
7.74554
 20
6.49927
 11
7.61415
 21
6.61888
  0
LINE
  8
0
 10
7.61415
 20
6.61888
 11
7.48097
 21
6.73589
  0
LINE
  8
0
 10
7.48097
 20
6.73589
 11
7.34602
 21
6.85027
  0
LINE
  8
0
 10
7.34602
 20
6.85027
 11
7.20937
 21
6.96199
  0
LINE
  8
0
 10
7.20937
 20
6.96199
 11
7.07108
 21
7.07103
  0
LINE
  8
0
 10
7.07108
 20
7.07103
 11
7.77817
 21
7.77815
  0
LINE
  8
0
 10
7.77817
 20
7.77815
 11
8.36444
 21
7.14392
  0
LINE
  8
0
 10
8.36444
 20
7.14392
 11
8.89917
 21
6.46562
  0
LINE
  8
0
 10
8.89917
 20
6.46562
 11
9.37903
 21
5.74747
  0
LINE
  8
0
 10
9.37903
 20
5.74747
 11
9.80106
 21
4.99387
  0
LINE
  8
0
 10
9.80106
 20
4.99387
 11
10.1627
 21
4.2095
  0
LINE
  8
0
 10
10.1627
 20
4.2095
 11
10.4616
 21
3.39919
  0
LINE
  8
0
 10
10.4616
 20
3.39919
 11
10.696
 21
2.5679
  0
LINE
  8
0
 10
10.696
 20
2.5679
 11
10.8645
 21
1.72078
  0
LINE
  8
0
 10
10.8645
 20
1.72078
 11
10.9661
 21
0.863037
  0
LINE
  8
0
 10
10.9661
 20
0.863037
 11
11
 21
0
  0
LINE
  8
0
 10
11
 20
0
 11
10.9761
 21
0.191574
  0
LINE
  8
0
 10
-10.0207
 20
0.174911
 11
-10.0383
 21
0.35054
  0
LINE
  8
0
 10
-10.0383
 20
0.35054
 11
-10.0529
 21
0.52684
  0
LINE
  8
0
 10
-10.0529
 20
0.52684
 11
-10.0643
 21
0.703751
  0
LINE
  8
0
 10
-10.0643
 20
0.703751
 11
-10.0726
 21
0.881241
  0
LINE
  8
0
 10
-10.0726
 20
0.881241
 11
-10.0778
 21
1.05922
  0
LINE
  8
0
 10
-10.0778
 20
1.05922
 11
-10.0798
 21
1.23764
  0
LINE
  8
0
 10
-10.0798
 20
1.23764
 11
-10.0787
 21
1.41646
  0
LINE
  8
0
 10
-10.0787
 20
1.41646
 11
-10.0744
 21
1.59563
  0
LINE
  8
0
 10
-10.0744
 20
1.59563
 11
-10.0669
 21
1.77507
  0
LINE
  8
0
 10
-10.0669
 20
1.77507
 11
-10.0562
 21
1.95473
  0
LINE
  8
0
 10
-10.0562
 20
1.95473
 11
-10.0423
 21
2.13455
  0
LINE
  8
0
 10
-10.0423
 20
2.13455
 11
-10.0252
 21
2.31448
  0
LINE
  8
0
 10
-10.0252
 20
2.31448
 11
-10.0048
 21
2.49448
  0
LINE
  8
0
 10
-10.0048
 20
2.49448
 11
-9.98123
 21
2.67445
  0
LINE
  8
0
 10
-9.98123
 20
2.67445
 11
-9.95439
 21
2.85437
  0
LINE
  8
0
 10
-9.95439
 20
2.85437
 11
-9.92432
 21
3.03416
  0
LINE
  8
0
 10
-9.92432
 20
3.03416
 11
-9.89098
 21
3.21378
  0
LINE
  8
0
 10
-9.89098
 20
3.21378
 11
-9.8544
 21
3.39314
  0
LINE
  8
0
 10
-9.8544
 20
3.39314
 11
-9.81456
 21
3.5722
  0
LINE
  8
0
 10
-9.81456
 20
3.5722
 11
-9.77147
 21
3.75092
  0
LINE
  8
0
 10
-9.77147
 20
3.75092
 11
-9.72513
 21
3.9292
  0
LINE
  8
0
 10
-9.72513
 20
3.9292
 11
-9.67551
 21
4.10701
  0
LINE
  8
0
 10
-9.67551
 20
4.10701
 11
-9.62265
 21
4.28429
  0
LINE
  8
0
 10
-9.62265
 20
4.28429
 11
-9.56656
 21
4.46097
  0
LINE
  8
0
 10
-9.56656
 20
4.46097
 11
-9.50722
 21
4.63698
  0
LINE
  8
0
 10
-9.50722
 20
4.63698
 11
-9.44464
 21
4.81229
  0
LINE
  8
0
 10
-9.44464
 20
4.81229
 11
-9.37885
 21
4.98682
  0
LINE
  8
0
 10
-9.37885
 20
4.98682
 11
-9.30981
 21
5.16052
  0
LINE
  8
0
 10
-9.30981
 20
5.16052
 11
-9.23758
 21
5.33333
  0
LINE
  8
0
 10
-9.23758
 20
5.33333
 11
-9.16214
 21
5.50517
  0
LINE
  8
0
 10
-9.16214
 20
5.50517
 11
-9.08351
 21
5.67601
  0
LINE
  8
0
 10
-9.08351
 20
5.67601
 11
-9.00171
 21
5.84578
  0
LINE
  8
0
 10
-9.00171
 20
5.84578
 11
-8.91673
 21
6.01442
  0
LINE
  8
0
 10
-8.91673
 20
6.01442
 11
-8.82861
 21
6.18187
  0
LINE
  8
0
 10
-8.82861
 20
6.18187
 11
-8.73737
 21
6.34807
  0
LINE
  8
0
 10
-8.73737
 20
6.34807
 11
-8.64299
 21
6.51297
  0
LINE
  8
0
 10
-8.64299
 20
6.51297
 11
-8.54552
 21
6.6765
  0
LINE
  8
0
 10
-8.54552
 20
6.6765
 11
-8.44496
 21
6.83861
  0
LINE
  8
0
 10
-8.44496
 20
6.83861
 11
-8.34135
 21
6.99924
  0
LINE
  8
0
 10
-8.34135
 20
6.99924
 11
-8.2347
 21
7.15833
  0
LINE
  8
0
 10
-8.2347
 20
7.15833
 11
-8.12503
 21
7.31583
  0
LINE
  8
0
 10
-8.12503
 20
7.31583
 11
-8.01236
 21
7.47166
  0
LINE
  8
0
 10
-8.01236
 20
7.47166
 11
-7.89673
 21
7.62579
  0
LINE
  8
0
 10
-7.89673
 20
7.62579
 11
-7.77823
 21
7.77808
  0
LINE
  8
0
 10
-7.77823
 20
7.77808
 11
-7.07118
 21
7.07089
  0
LINE
  8
0
 10
-7.07118
 20
7.07089
 11
-7.60403
 21
6.49446
  0
LINE
  8
0
 10
-7.60403
 20
6.49446
 11
-8.09015
 21
5.87784
  0
LINE
  8
0
 10
-8.09015
 20
5.87784
 11
-8.52638
 21
5.22496
  0
LINE
  8
0
 10
-8.52638
 20
5.22496
 11
-8.91003
 21
4.53989
  0
LINE
  8
0
 10
-8.91003
 20
4.53989
 11
-9.23878
 21
3.82683
  0
LINE
  8
0
 10
-9.23878
 20
3.82683
 11
-9.51054
 21
3.09016
  0
LINE
  8
0
 10
-9.51054
 20
3.09016
 11
-9.72368
 21
2.33446
  0
LINE
  8
0
 10
-9.72368
 20
2.33446
 11
-9.87686
 21
1.56435
  0
LINE
  8
0
 10
-9.87686
 20
1.56435
 11
-9.96916
 21
0.784592
  0
LINE
  8
0
 10
-9.96916
 20
0.784592
 11
-9.99997
 21
1.52588e-05
  0
LINE
  8
0
 10
-9.99997
 20
1.52588e-05
 11
-10.0207
 21
0.174911
  0
LINE
  8
0
 10
-8.36444
 20
-7.14391
 11
-8.89917
 21
-6.46561
  0
LINE
  8
0
 10
-8.89917
 20
-6.46561
 11
-9.37903
 21
-5.74745
  0
LINE
  8
0
 10
-9.37903
 20
-5.74745
 11
-9.80106
 21
-4.99385
  0
LINE
  8
0
 10
-9.80106
 20
-4.99385
 11
-10.1627
 21
-4.20949
  0
LINE
  8
0
 10
-10.1627
 20
-4.20949
 11
-10.4616
 21
-3.39917
  0
LINE
  8
0
 10
-10.4616
 20
-3.39917
 11
-10.696
 21
-2.56789
  0
LINE
  8
0
 10
-10.696
 20
-2.56789
 11
-10.8645
 21
-1.72076
  0
LINE
  8
0
 10
-10.8645
 20
-1.72076
 11
-10.9661
 21
-0.863022
  0
LINE
  8
0
 10
-10.9661
 20
-0.863022
 11
-11
 21
0
  0
LINE
  8
0
 10
-11
 20
0
 11
-10.9761
 21
-0.191574
  0
LINE
  8
0
 10
-10.9761
 20
-0.191574
 11
-10.9489
 21
-0.382324
  0
LINE
  8
0
 10
-10.9489
 20
-0.382324
 11
-10.9183
 21
-0.572174
  0
LINE
  8
0
 10
-10.9183
 20
-0.572174
 11
-10.8845
 21
-0.761093
  0
LINE
  8
0
 10
-10.8845
 20
-0.761093
 11
-10.8474
 21
-0.949005
  0
LINE
  8
0
 10
-10.8474
 20
-0.949005
 11
-10.8071
 21
-1.13585
  0
LINE
  8
0
 10
-10.8071
 20
-1.13585
 11
-10.7636
 21
-1.32158
  0
LINE
  8
0
 10
-10.7636
 20
-1.32158
 11
-10.7169
 21
-1.50613
  0
LINE
  8
0
 10
-10.7169
 20
-1.50613
 11
-10.667
 21
-1.68948
  0
LINE
  8
0
 10
-10.667
 20
-1.68948
 11
-10.614
 21
-1.87152
  0
LINE
  8
0
 10
-10.614
 20
-1.87152
 11
-10.5579
 21
-2.05223
  0
LINE
  8
0
 10
-10.5579
 20
-2.05223
 11
-10.4988
 21
-2.23157
  0
LINE
  8
0
 10
-10.4988
 20
-2.23157
 11
-10.4366
 21
-2.40945
  0
LINE
  8
0
 10
-10.4366
 20
-2.40945
 11
-10.3714
 21
-2.58586
  0
LINE
  8
0
 10
-10.3714
 20
-2.58586
 11
-10.3032
 21
-2.76071
  0
LINE
  8
0
 10
-10.3032
 20
-2.76071
 11
-10.2321
 21
-2.93398
  0
LINE
  8
0
 10
-10.2321
 20
-2.93398
 11
-10.1581
 21
-3.10562
  0
LINE
  8
0
 10
-10.1581
 20
-3.10562
 11
-10.0812
 21
-3.27556
  0
LINE
  8
0
 10
-10.0812
 20
-3.27556
 11
-10.0015
 21
-3.44377
  0
LINE
  8
0
 10
-10.0015
 20
-3.44377
 11
-9.91896
 21
-3.61018
  0
LINE
  8
0
 10
-9.91896
 20
-3.61018
 11
-9.83369
 21
-3.77478
  0
LINE
  8
0
 10
-9.83369
 20
-3.77478
 11
-9.74571
 21
-3.93752
  0
LINE
  8
0
 10
-9.74571
 20
-3.93752
 11
-9.65506
 21
-4.09831
  0
LINE
  8
0
 10
-9.65506
 20
-4.09831
 11
-9.56177
 21
-4.25716
  0
LINE
  8
0
 10
-9.56177
 20
-4.25716
 11
-9.46587
 21
-4.41399
  0
LINE
  8
0
 10
-9.46587
 20
-4.41399
 11
-9.36742
 21
-4.56877
  0
LINE
  8
0
 10
-9.36742
 20
-4.56877
 11
-9.26645
 21
-4.72147
  0
LINE
  8
0
 10
-9.26645
 20
-4.72147
 11
-9.16302
 21
-4.87206
  0
LINE
  8
0
 10
-9.16302
 20
-4.87206
 11
-9.05716
 21
-5.02045
  0
LINE
  8
0
 10
-9.05716
 20
-5.02045
 11
-8.94891
 21
-5.16666
  0
LINE
  8
0
 10
-8.94891
 20
-5.16666
 11
-8.83833
 21
-5.31059
  0
LINE
  8
0
 10
-8.83833
 20
-5.31059
 11
-8.72545
 21
-5.45226
  0
LINE
  8
0
 10
-8.72545
 20
-5.45226
 11
-8.61034
 21
-5.59161
  0
LINE
  8
0
 10
-8.61034
 20
-5.59161
 11
-8.49301
 21
-5.72859
  0
LINE
  8
0
 10
-8.49301
 20
-5.72859
 11
-8.37354
 21
-5.86319
  0
LINE
  8
0
 10
-8.37354
 20
-5.86319
 11
-8.25195
 21
-5.99539
  0
LINE
  8
0
 10
-8.25195
 20
-5.99539
 11
-8.12831
 21
-6.12512
  0
LINE
  8
0
 10
-8.12831
 20
-6.12512
 11
-8.00267
 21
-6.25237
  0
LINE
  8
0
 10
-8.00267
 20
-6.25237
 11
-7.87506
 21
-6.37709
  0
LINE
  8
0
 10
-7.87506
 20
-6.37709
 11
-7.74554
 21
-6.49927
  0
LINE
  8
0
 10
-7.74554
 20
-6.49927
 11
-7.61415
 21
-6.61888
  0
LINE
  8
0
 10
-7.61415
 20
-6.61888
 11
-7.48097
 21
-6.73589
  0
LINE
  8
0
 10
-7.48097
 20
-6.73589
 11
-7.34602
 21
-6.85027
  0
LINE
  8
0
 10
-7.34602
 20
-6.85027
 11
-7.20937
 21
-6.96199
  0
LINE
  8
0
 10
-7.20937
 20
-6.96199
 11
-7.07108
 21
-7.07103
  0
LINE
  8
0
 10
-7.07108
 20
-7.07103
 11
-7.77817
 21
-7.77814
  0
LINE
  8
0
 10
-7.77817
 20
-7.77814
 11
-8.36444
 21
-7.14391
  0
LINE
  8
0
 10
7.07118
 20
-7.07089
 11
7.60403
 21
-6.49446
  0
LINE
  8
0
 10
7.60403
 20
-6.49446
 11
8.09015
 21
-5.87784
  0
LINE
  8
0
 10
8.09015
 20
-5.87784
 11
8.52638
 21
-5.22496
  0
LINE
  8
0
 10
8.52638
 20
-5.22496
 11
8.91003
 21
-4.53989
  0
LINE
  8
0
 10
8.91003
 20
-4.53989
 11
9.23878
 21
-3.82683
  0
LINE
  8
0
 10
9.23878
 20
-3.82683
 11
9.51054
 21
-3.09016
  0
LINE
  8
0
 10
9.51054
 20
-3.09016
 11
9.72368
 21
-2.33446
  0
LINE
  8
0
 10
9.72368
 20
-2.33446
 11
9.87686
 21
-1.56435
  0
LINE
  8
0
 10
9.87686
 20
-1.56435
 11
9.96916
 21
-0.784592
  0
LINE
  8
0
 10
9.96916
 20
-0.784592
 11
9.99997
 21
-1.52588e-05
  0
LINE
  8
0
 10
9.99997
 20
-1.52588e-05
 11
10.0207
 21
-0.174911
  0
LINE
  8
0
 10
10.0207
 20
-0.174911
 11
10.0383
 21
-0.35054
  0
LINE
  8
0
 10
10.0383
 20
-0.35054
 11
10.0529
 21
-0.52684
  0
LINE
  8
0
 10
10.0529
 20
-0.52684
 11
10.0643
 21
-0.703751
  0
LINE
  8
0
 10
10.0643
 20
-0.703751
 11
10.0726
 21
-0.881241
  0
LINE
  8
0
 10
10.0726
 20
-0.881241
 11
10.0778
 21
-1.05922
  0
LINE
  8
0
 10
10.0778
 20
-1.05922
 11
10.0798
 21
-1.23764
  0
LINE
  8
0
 10
10.0798
 20
-1.23764
 11
10.0787
 21
-1.41646
  0
LINE
  8
0
 10
10.0787
 20
-1.41646
 11
10.0744
 21
-1.59563
  0
LINE
  8
0
 10
10.0744
 20
-1.59563
 11
10.0669
 21
-1.77507
  0
LINE
  8
0
 10
10.0669
 20
-1.77507
 11
10.0562
 21
-1.95473
  0
LINE
  8
0
 10
10.0562
 20
-1.95473
 11
10.0423
 21
-2.13455
  0
LINE
  8
0
 10
10.0423
 20
-2.13455
 11
10.0252
 21
-2.31448
  0
LINE
  8
0
 10
10.0252
 20
-2.31448
 11
10.0048
 21
-2.49448
  0
LINE
  8
0
 10
10.0048
 20
-2.49448
 11
9.98123
 21
-2.67445
  0
LINE
  8
0
 10
9.98123
 20
-2.67445
 11
9.95439
 21
-2.85437
  0
LINE
  8
0
 10
9.95439
 20
-2.85437
 11
9.92432
 21
-3.03416
  0
LINE
  8
0
 10
9.92432
 20
-3.03416
 11
9.89098
 21
-3.21378
  0
LINE
  8
0
 10
9.89098
 20
-3.21378
 11
9.8544
 21
-3.39314
  0
LINE
  8
0
 10
9.8544
 20
-3.39314
 11
9.81456
 21
-3.5722
  0
LINE
  8
0
 10
9.81456
 20
-3.5722
 11
9.77147
 21
-3.75092
  0
LINE
  8
0
 10
9.77147
 20
-3.75092
 11
9.72513
 21
-3.9292
  0
LINE
  8
0
 10
9.72513
 20
-3.9292
 11
9.67551
 21
-4.10701
  0
LINE
  8
0
 10
9.67551
 20
-4.10701
 11
9.62265
 21
-4.28429
  0
LINE
  8
0
 10
9.62265
 20
-4.28429
 11
9.56656
 21
-4.46097
  0
LINE
  8
0
 10
9.56656
 20
-4.46097
 11
9.50722
 21
-4.63698
  0
LINE
  8
0
 10
9.50722
 20
-4.63698
 11
9.44464
 21
-4.81229
  0
LINE
  8
0
 10
9.44464
 20
-4.81229
 11
9.37885
 21
-4.98682
  0
LINE
  8
0
 10
9.37885
 20
-4.98682
 11
9.30981
 21
-5.16052
  0
LINE
  8
0
 10
9.30981
 20
-5.16052
 11
9.23758
 21
-5.33333
  0
LINE
  8
0
 10
9.23758
 20
-5.33333
 11
9.16214
 21
-5.50517
  0
LINE
  8
0
 10
9.16214
 20
-5.50517
 11
9.08351
 21
-5.67601
  0
LINE
  8
0
 10
9.08351
 20
-5.67601
 11
9.00171
 21
-5.84578
  0
LINE
  8
0
 10
9.00171
 20
-5.84578
 11
8.91673
 21
-6.01442
  0
LINE
  8
0
 10
8.91673
 20
-6.01442
 11
8.82861
 21
-6.18187
  0
LINE
  8
0
 10
8.82861
 20
-6.18187
 11
8.73737
 21
-6.34807
  0
LINE
  8
0
 10
8.73737
 20
-6.34807
 11
8.64299
 21
-6.51297
  0
LINE
  8
0
 10
8.64299
 20
-6.51297
 11
8.54552
 21
-6.6765
  0
LINE
  8
0
 10
8.54552
 20
-6.6765
 11
8.44496
 21
-6.83861
  0
LINE
  8
0
 10
8.44496
 20
-6.83861
 11
8.34135
 21
-6.99924
  0
LINE
  8
0
 10
8.34135
 20
-6.99924
 11
8.2347
 21
-7.15833
  0
LINE
  8
0
 10
8.2347
 20
-7.15833
 11
8.12503
 21
-7.31583
  0
LINE
  8
0
 10
8.12503
 20
-7.31583
 11
8.01236
 21
-7.47166
  0
LINE
  8
0
 10
8.01236
 20
-7.47166
 11
7.89673
 21
-7.62579
  0
LINE
  8
0
 10
7.89673
 20
-7.62579
 11
7.77823
 21
-7.77808
  0
LINE
  8
0
 10
7.77823
 20
-7.77808
 11
7.07118
 21
-7.07089
  0
LINE
  8
0
 10
0.191574
 20
-10.9761
 11
0.382324
 21
-10.9489
  0
LINE
  8
0
 10
0.382324
 20
-10.9489
 11
0.572174
 21
-10.9183
  0
LINE
  8
0
 10
0.572174
 20
-10.9183
 11
0.761093
 21
-10.8845
  0
LINE
  8
0
 10
0.761093
 20
-10.8845
 11
0.949005
 21
-10.8474
  0
LINE
  8
0
 10
0.949005
 20
-10.8474
 11
1.13585
 21
-10.8071
  0
LINE
  8
0
 10
1.13585
 20
-10.8071
 11
1.32158
 21
-10.7636
  0
LINE
  8
0
 10
1.32158
 20
-10.7636
 11
1.50613
 21
-10.7169
  0
LINE
  8
0
 10
1.50613
 20
-10.7169
 11
1.68948
 21
-10.667
  0
LINE
  8
0
 10
1.68948
 20
-10.667
 11
1.87152
 21
-10.614
  0
LINE
  8
0
 10
1.87152
 20
-10.614
 11
2.05223
 21
-10.5579
  0
LINE
  8
0
 10
2.05223
 20
-10.5579
 11
2.23157
 21
-10.4988
  0
LINE
  8
0
 10
2.23157
 20
-10.4988
 11
2.40945
 21
-10.4366
  0
LINE
  8
0
 10
2.40945
 20
-10.4366
 11
2.58586
 21
-10.3714
  0
LINE
  8
0
 10
2.58586
 20
-10.3714
 11
2.76071
 21
-10.3032
  0
LINE
  8
0
 10
2.76071
 20
-10.3032
 11
2.93398
 21
-10.2321
  0
LINE
  8
0
 10
2.93398
 20
-10.2321
 11
3.10562
 21
-10.1581
  0
LINE
  8
0
 10
3.10562
 20
-10.1581
 11
3.27556
 21
-10.0812
  0
LINE
  8
0
 10
3.27556
 20
-10.0812
 11
3.44377
 21
-10.0015
  0
LINE
  8
0
 10
3.44377
 20
-10.0015
 11
3.61018
 21
-9.91896
  0
LINE
  8
0
 10
3.61018
 20
-9.91896
 11
3.77478
 21
-9.83369
  0
LINE
  8
0
 10
3.77478
 20
-9.83369
 11
3.93752
 21
-9.74571
  0
LINE
  8
0
 10
3.93752
 20
-9.74571
 11
4.09831
 21
-9.65506
  0
LINE
  8
0
 10
4.09831
 20
-9.65506
 11
4.25716
 21
-9.56177
  0
LINE
  8
0
 10
4.25716
 20
-9.56177
 11
4.41399
 21
-9.46587
  0
LINE
  8
0
 10
4.41399
 20
-9.46587
 11
4.56877
 21
-9.36742
  0
LINE
  8
0
 10
4.56877
 20
-9.36742
 11
4.72147
 21
-9.26645
  0
LINE
  8
0
 10
4.72147
 20
-9.26645
 11
4.87206
 21
-9.16302
  0
LINE
  8
0
 10
4.87206
 20
-9.16302
 11
5.02045
 21
-9.05716
  0
LINE
  8
0
 10
5.02045
 20
-9.05716
 11
5.16666
 21
-8.94891
  0
LINE
  8
0
 10
5.16666
 20
-8.94891
 11
5.31059
 21
-8.83833
  0
LINE
  8
0
 10
5.31059
 20
-8.83833
 11
5.45226
 21
-8.72545
  0
LINE
  8
0
 10
5.45226
 20
-8.72545
 11
5.59161
 21
-8.61034
  0
LINE
  8
0
 10
5.59161
 20
-8.61034
 11
5.72859
 21
-8.49301
  0
LINE
  8
0
 10
5.72859
 20
-8.49301
 11
5.86319
 21
-8.37354
  0
LINE
  8
0
 10
5.86319
 20
-8.37354
 11
5.99539
 21
-8.25195
  0
LINE
  8
0
 10
5.99539
 20
-8.25195
 11
6.12512
 21
-8.12831
  0
LINE
  8
0
 10
6.12512
 20
-8.12831
 11
6.25237
 21
-8.00267
  0
LINE
  8
0
 10
6.25237
 20
-8.00267
 11
6.37709
 21
-7.87506
  0
LINE
  8
0
 10
6.37709
 20
-7.87506
 11
6.49927
 21
-7.74554
  0
LINE
  8
0
 10
6.49927
 20
-7.74554
 11
6.61888
 21
-7.61415
  0
LINE
  8
0
 10
6.61888
 20
-7.61415
 11
6.73589
 21
-7.48097
  0
LINE
  8
0
 10
6.73589
 20
-7.48097
 11
6.85027
 21
-7.34602
  0
LINE
  8
0
 10
6.85027
 20
-7.34602
 11
6.96199
 21
-7.20937
  0
LINE
  8
0
 10
6.96199
 20
-7.20937
 11
7.07103
 21
-7.07108
  0
LINE
  8
0
 10
7.07103
 20
-7.07108
 11
7.77814
 21
-7.77817
  0
LINE
  8
0
 10
7.77814
 20
-7.77817
 11
7.14391
 21
-8.36444
  0
LINE
  8
0
 10
7.14391
 20
-8.36444
 11
6.46561
 21
-8.89917
  0
LINE
  8
0
 10
6.46561
 20
-8.89917
 11
5.74745
 21
-9.37903
  0
LINE
  8
0
 10
5.74745
 20
-9.37903
 11
4.99385
 21
-9.80106
  0
LINE
  8
0
 10
4.99385
 20
-9.80106
 11
4.20949
 21
-10.1627
  0
LINE
  8
0
 10
4.20949
 20
-10.1627
 11
3.39917
 21
-10.4616
  0
LINE
  8
0
 10
3.39917
 20
-10.4616
 11
2.56789
 21
-10.696
  0
LINE
  8
0
 10
2.56789
 20
-10.696
 11
1.72076
 21
-10.8645
  0
LINE
  8
0
 10
1.72076
 20
-10.8645
 11
0.863022
 21
-10.9661
  0
LINE
  8
0
 10
0.863022
 20
-10.9661
 11
0
 21
-11
  0
LINE
  8
0
 10
0
 20
-11
 11
0.191574
 21
-10.9761
  0
LINE
  8
0
 10
-1.41646
 20
-10.0787
 11
-1.59563
 21
-10.0744
  0
LINE
  8
0
 10
-1.59563
 20
-10.0744
 11
-1.77507
 21
-10.0669
  0
LINE
  8
0
 10
-1.77507
 20
-10.0669
 11
-1.95473
 21
-10.0562
  0
LINE
  8
0
 10
-1.95473
 20
-10.0562
 11
-2.13455
 21
-10.0423
  0
LINE
  8
0
 10
-2.13455
 20
-10.0423
 11
-2.31448
 21
-10.0252
  0
LINE
  8
0
 10
-2.31448
 20
-10.0252
 11
-2.49448
 21
-10.0048
  0
LINE
  8
0
 10
-2.49448
 20
-10.0048
 11
-2.67445
 21
-9.98123
  0
LINE
  8
0
 10
-2.67445
 20
-9.98123
 11
-2.85437
 21
-9.95439
  0
LINE
  8
0
 10
-2.85437
 20
-9.95439
 11
-3.03416
 21
-9.92432
  0
LINE
  8
0
 10
-3.03416
 20
-9.92432
 11
-3.21378
 21
-9.89098
  0
LINE
  8
0
 10
-3.21378
 20
-9.89098
 11
-3.39314
 21
-9.8544
  0
LINE
  8
0
 10
-3.39314
 20
-9.8544
 11
-3.5722
 21
-9.81456
  0
LINE
  8
0
 10
-3.5722
 20
-9.81456
 11
-3.75092
 21
-9.77147
  0
LINE
  8
0
 10
-3.75092
 20
-9.77147
 11
-3.9292
 21
-9.72513
  0
LINE
  8
0
 10
-3.9292
 20
-9.72513
 11
-4.10701
 21
-9.67552
  0
LINE
  8
0
 10
-4.10701
 20
-9.67552
 11
-4.28429
 21
-9.62267
  0
LINE
  8
0
 10
-4.28429
 20
-9.62267
 11
-4.46097
 21
-9.56657
  0
LINE
  8
0
 10
-4.46097
 20
-9.56657
 11
-4.63698
 21
-9.50723
  0
LINE
  8
0
 10
-4.63698
 20
-9.50723
 11
-4.81229
 21
-9.44466
  0
LINE
  8
0
 10
-4.81229
 20
-9.44466
 11
-4.98682
 21
-9.37886
  0
LINE
  8
0
 10
-4.98682
 20
-9.37886
 11
-5.16052
 21
-9.30983
  0
LINE
  8
0
 10
-5.16052
 20
-9.30983
 11
-5.33333
 21
-9.23759
  0
LINE
  8
0
 10
-5.33333
 20
-9.23759
 11
-5.50517
 21
-9.16216
  0
LINE
  8
0
 10
-5.50517
 20
-9.16216
 11
-5.67601
 21
-9.08353
  0
LINE
  8
0
 10
-5.67601
 20
-9.08353
 11
-5.84578
 21
-9.00172
  0
LINE
  8
0
 10
-5.84578
 20
-9.00172
 11
-6.01442
 21
-8.91675
  0
LINE
  8
0
 10
-6.01442
 20
-8.91675
 11
-6.18187
 21
-8.82863
  0
LINE
  8
0
 10
-6.18187
 20
-8.82863
 11
-6.34807
 21
-8.73738
  0
LINE
  8
0
 10
-6.34807
 20
-8.73738
 11
-6.51297
 21
-8.64301
  0
LINE
  8
0
 10
-6.51297
 20
-8.64301
 11
-6.6765
 21
-8.54553
  0
LINE
  8
0
 10
-6.6765
 20
-8.54553
 11
-6.83861
 21
-8.44498
  0
LINE
  8
0
 10
-6.83861
 20
-8.44498
 11
-6.99924
 21
-8.34137
  0
LINE
  8
0
 10
-6.99924
 20
-8.34137
 11
-7.15833
 21
-8.23471
  0
LINE
  8
0
 10
-7.15833
 20
-8.23471
 11
-7.31583
 21
-8.12503
  0
LINE
  8
0
 10
-7.31583
 20
-8.12503
 11
-7.47166
 21
-8.01236
  0
LINE
  8
0
 10
-7.47166
 20
-8.01236
 11
-7.62579
 21
-7.89673
  0
LINE
  8
0
 10
-7.62579
 20
-7.89673
 11
-7.77808
 21
-7.77823
  0
LINE
  8
0
 10
-7.77808
 20
-7.77823
 11
-7.07089
 21
-7.07118
  0
LINE
  8
0
 10
-7.07089
 20
-7.07118
 11
-6.49446
 21
-7.60403
  0
LINE
  8
0
 10
-6.49446
 20
-7.60403
 11
-5.87784
 21
-8.09016
  0
LINE
  8
0
 10
-5.87784
 20
-8.09016
 11
-5.22496
 21
-8.5264
  0
LINE
  8
0
 10
-5.22496
 20
-8.5264
 11
-4.53989
 21
-8.91005
  0
LINE
  8
0
 10
-4.53989
 20
-8.91005
 11
-3.82683
 21
-9.23878
  0
LINE
  8
0
 10
-3.82683
 20
-9.23878
 11
-3.09016
 21
-9.51054
  0
LINE
  8
0
 10
-3.09016
 20
-9.51054
 11
-2.33446
 21
-9.72368
  0
LINE
  8
0
 10
-2.33446
 20
-9.72368
 11
-1.56435
 21
-9.87686
  0
LINE
  8
0
 10
-1.56435
 20
-9.87686
 11
-0.784592
 21
-9.96916
  0
LINE
  8
0
 10
-0.784592
 20
-9.96916
 11
-1.52588e-05
 21
-9.99997
  0
LINE
  8
0
 10
-1.52588e-05
 20
-9.99997
 11
-0.174911
 21
-10.0207
  0
LINE
  8
0
 10
-0.174911
 20
-10.0207
 11
-0.35054
 21
-10.0383
  0
LINE
  8
0
 10
-0.35054
 20
-10.0383
 11
-0.52684
 21
-10.0529
  0
LINE
  8
0
 10
-0.52684
 20
-10.0529
 11
-0.703751
 21
-10.0643
  0
LINE
  8
0
 10
-0.703751
 20
-10.0643
 11
-0.881241
 21
-10.0726
  0
LINE
  8
0
 10
-0.881241
 20
-10.0726
 11
-1.05922
 21
-10.0778
  0
LINE
  8
0
 10
-1.05922
 20
-10.0778
 11
-1.23764
 21
-10.0798
  0
LINE
  8
0
 10
-1.23764
 20
-10.0798
 11
-1.41646
 21
-10.0787
  0
ENDSEC
  0
SECTION
  2
OBJECTS
  0
DICTIONARY
  0
ENDSEC
  0
EOF
